<?xml version="1.0" encoding="UTF-8"?>
<svg width="76px" height="38px" viewBox="0 0 76 38" version="1.1" xmlns="http://www.w3.org/2000/svg" xmlns:xlink="http://www.w3.org/1999/xlink">
    <!-- Generator: Sketch 46.2 (44496) - http://www.bohemiancoding.com/sketch -->
    <title>Combined Shape</title>
    <desc>Created with Sketch.</desc>
    <defs></defs>
    <g id="Symbols" stroke="none" stroke-width="1" fill="none" fill-rule="evenodd">
        <g id="header" transform="translate(-142.000000, -21.000000)" fill="#FFFFFF">
            <path d="M170.535871,53.2223452 L170.360818,54.3985116 L169.54614,55.6630429 C169.54614,57.3856004 169.178575,58.2468791 168.443444,58.2468791 C165.794996,58.3820709 164.498516,58.2621172 164.554003,57.887018 C163.9053,57.9965652 163.52903,57.9965652 163.425192,57.887018 C163.321354,57.7774708 163.321354,57.4221626 163.425192,56.8210932 C162.319809,56.8210932 161.767118,56.8210932 161.767118,56.8210932 C162.882963,53.9112636 164.728996,55.6557955 165.081081,54.9390001 C165.301127,54.4910174 165.405409,53.7186051 165.393925,52.6217632 C152.168533,48.8222363 155.357037,37.2773372 155.307581,36.1014893 C152.504189,34.6110344 153.960929,33.5819738 153.56604,32.2671288 C153.21934,31.9600204 152.2519,32.4034781 151.995925,32.4308224 C149.971692,32.6470587 149.706078,32.8195454 149.05391,33.0091507 C148.436916,33.1885299 148.204769,33.5747834 146.968048,33.7376534 C144.258798,34.0944483 144.267121,33.0863633 142.909698,32.2671288 C142.00475,31.7209724 141.774969,30.9979053 142.220356,30.0979273 L147.789649,25.8735314 C149.152294,22.636361 151.532633,21.0177758 154.930666,21.0177758 C161.584052,20.4296217 163.690407,34.6300588 166.875258,34.9472717 C175.128064,37.9192618 184.911187,38.0714571 192.98809,38.3998199 C198.372691,38.6187285 201.689359,39.8437359 202.938093,42.0748423 C202.936832,42.1322955 202.935557,42.1895206 202.934266,42.2465176 C204.02517,43.0678247 204.770205,44.978204 205.169372,47.9776555 C205.590233,51.140122 209.867109,53.6488584 218,55.5038648 C212.588269,55.4373283 208.571095,54.4461203 205.948477,52.5302407 C205.887891,54.676782 205.492901,57.1405563 205.105745,58.0313877 C204.647582,59.0856051 202.96189,59.2792814 200.048667,58.6124164 L200.048667,58.1663182 L200.43025,57.6363698 L199.676457,57.6363698 C199.564947,57.5810967 199.552666,57.3761313 199.639615,57.0214735 C200.048965,56.5316296 200.525913,56.1430228 200.525423,56.1230228 C201.331987,55.7253451 201.88147,55.2698277 202.173872,54.7564704 C202.168276,53.9347272 202.168276,53.5290356 202.173872,53.5393956 C202.369668,53.1105312 202.29967,52.8501176 201.963878,52.7581547 C201.867253,52.9077505 201.763974,52.9581146 201.654039,52.909247 C200.617787,52.4486192 198.837918,54.096705 197.120717,53.2737074 C195.484648,52.1683401 196.072871,50.3405328 192.98809,50.3405328 C190.434598,50.3405328 178.183484,53.0982096 170.535871,53.2223452 Z M202.674392,48.4534585 C202.733956,48.4454348 202.792855,48.4383467 202.851091,48.4321942 C202.799336,48.2876827 202.750921,48.1409575 202.705843,47.9920186 C202.695613,48.1496058 202.685129,48.3034191 202.674392,48.4534585 Z" id="Combined-Shape"></path>
        </g>
    </g>
</svg>